<?xml version="1.0" encoding="UTF-8" standalone="no"?>
<!DOCTYPE svg PUBLIC "-//W3C//DTD SVG 20010904//EN"
              "http://www.w3.org/TR/2001/REC-SVG-20010904/DTD/svg10.dtd">

<svg xmlns="http://www.w3.org/2000/svg"
     width="216.765mm" height="216.765mm"
     viewBox="0 0 1024 1024">
  <path id="Selezione"
        fill="#94D1BE"
        d="M 497.00,126.00
           C 502.65,126.31 506.20,127.85 510.96,130.90
             514.69,133.28 516.97,135.43 519.56,139.04
             523.62,144.70 525.24,151.09 524.96,158.00
             524.04,180.86 502.06,193.43 503.04,216.00
             503.59,228.53 510.73,235.96 516.00,246.00
             509.45,245.12 505.71,244.07 500.00,240.53
             481.58,229.11 479.43,204.51 490.09,187.00
             496.51,176.45 507.77,166.32 509.84,154.00
             511.98,141.29 503.80,134.81 497.00,126.00 Z
           M 446.00,162.00
           C 450.75,162.91 452.45,163.96 456.00,167.31
             458.60,169.76 460.29,171.76 461.64,175.09
             466.61,187.40 461.80,197.27 455.58,208.00
             451.36,215.27 446.53,221.07 447.18,230.00
             447.89,239.80 450.85,240.77 454.00,249.00
             449.23,248.32 445.96,247.59 442.09,244.47
             438.73,241.77 436.58,238.92 434.96,234.96
             430.52,224.13 430.94,216.23 437.55,206.30
             442.77,198.47 453.66,187.24 452.44,177.00
             451.96,172.92 447.93,166.02 446.00,162.00 Z
           M 558.00,162.00
           C 562.49,163.10 565.34,164.78 568.56,168.18
             570.77,170.52 572.45,173.06 573.75,176.00
             583.29,197.49 561.32,205.75 557.39,224.00
             555.23,234.00 560.03,242.77 565.00,251.00
             559.54,250.38 556.36,248.40 552.44,244.54
             541.85,234.11 541.27,218.33 548.77,206.00
             553.98,197.45 561.91,193.38 564.32,183.00
             566.20,174.86 561.28,169.00 558.00,162.00 Z
           M 401.00,208.00
           C 410.04,208.64 414.74,214.01 414.98,223.00
             415.05,225.44 415.09,228.71 414.28,231.00
             412.16,236.99 400.97,247.35 404.82,258.00
             406.08,261.49 408.60,264.26 411.00,267.00
             407.07,266.91 402.37,266.71 399.02,264.42
             392.26,259.79 391.54,247.39 394.39,240.28
             396.89,234.05 402.76,231.61 404.47,222.00
             405.35,217.06 402.79,212.47 401.00,208.00 Z
           M 598.00,209.00
           C 606.08,209.84 609.66,212.60 613.04,220.00
             614.25,222.66 615.01,225.04 614.63,228.00
             613.60,236.17 606.93,241.44 606.14,247.00
             604.81,256.37 608.50,256.77 611.00,264.00
             608.63,263.69 604.54,263.20 602.44,262.23
             599.53,260.88 598.03,258.81 596.74,255.96
             589.78,240.50 603.95,233.07 604.74,223.00
             605.13,217.97 600.65,213.00 598.00,209.00 Z
           M 421.00,443.00
           C 390.65,429.93 365.30,407.34 347.00,380.00
             343.88,375.34 339.69,368.99 337.32,364.00
             332.58,354.02 328.73,343.62 325.71,333.00
             325.71,333.00 321.02,316.31 321.02,316.31
             317.21,311.08 308.43,317.79 303.09,308.96
             299.16,302.47 301.88,294.67 309.00,292.03
             312.03,290.91 315.80,291.00 319.00,291.00
             319.00,291.00 439.00,291.00 439.00,291.00
             439.00,291.00 454.00,290.00 454.00,290.00
             454.00,290.00 699.00,290.00 699.00,290.00
             702.25,290.01 706.01,289.82 708.98,291.31
             715.99,294.83 717.76,305.25 711.78,310.57
             707.64,314.25 700.02,314.42 695.00,313.00
             685.00,357.30 668.56,388.50 633.00,418.08
             622.45,426.85 606.95,437.48 594.00,442.00
             594.00,442.00 610.30,478.00 610.30,478.00
             610.30,478.00 644.14,554.00 644.14,554.00
             644.14,554.00 649.86,567.00 649.86,567.00
             653.20,574.56 659.12,586.44 648.96,591.83
             647.12,592.80 645.04,592.97 643.00,592.97
             633.65,592.97 631.69,586.27 628.22,579.00
             628.22,579.00 612.30,543.00 612.30,543.00
             606.14,529.33 607.81,528.02 597.00,528.00
             597.00,528.00 410.00,528.00 410.00,528.00
             410.00,528.00 393.42,568.00 393.42,568.00
             391.60,572.35 385.89,586.83 383.36,589.66
             375.96,597.98 360.84,592.19 362.37,580.00
             362.80,576.54 366.48,568.55 368.00,565.00
             368.00,565.00 380.58,536.00 380.58,536.00
             380.58,536.00 406.15,477.00 406.15,477.00
             406.15,477.00 421.00,443.00 421.00,443.00 Z
           M 595.00,504.00
           C 595.00,504.00 579.23,467.00 579.23,467.00
             577.94,464.18 574.63,455.46 572.37,454.03
             570.10,452.60 566.33,454.27 564.00,454.98
             564.00,454.98 543.00,459.80 543.00,459.80
             521.33,464.10 495.78,463.92 474.00,460.41
             474.00,460.41 453.00,455.57 453.00,455.57
             450.43,454.84 445.84,452.79 443.39,454.11
             441.05,455.38 437.62,464.23 436.42,467.00
             436.42,467.00 421.00,504.00 421.00,504.00
             421.00,504.00 595.00,504.00 595.00,504.00 Z
           M 215.00,758.00
           C 215.00,758.00 215.00,741.00 215.00,741.00
             215.03,739.38 214.96,736.94 216.02,735.60
             217.37,733.90 220.05,734.04 222.00,734.00
             222.00,734.00 253.00,734.00 253.00,734.00
             254.99,734.00 258.81,733.77 260.40,735.02
             262.38,736.59 262.00,740.70 262.00,743.00
             262.00,743.00 262.00,780.00 262.00,780.00
             261.98,794.31 257.84,808.35 247.71,818.83
             229.52,837.66 194.84,837.88 176.09,819.83
             164.26,808.43 161.19,791.79 161.00,776.00
             161.00,776.00 161.00,721.00 161.00,721.00
             161.00,709.81 160.56,693.55 163.72,683.00
             169.94,662.27 184.72,650.40 206.00,647.85
             209.05,647.48 210.83,646.96 214.00,647.18
             232.54,648.50 247.56,655.75 256.19,673.00
             259.45,679.52 260.87,685.83 261.72,693.00
             261.99,695.30 262.46,699.35 260.40,700.98
             258.81,702.23 254.99,702.00 253.00,702.00
             253.00,702.00 240.00,702.00 240.00,702.00
             230.13,701.81 234.88,698.04 231.05,689.00
             227.92,681.63 222.03,677.24 214.00,677.02
             195.70,676.51 191.02,689.04 191.00,705.00
             191.00,705.00 191.00,775.00 191.00,775.00
             191.02,788.29 195.05,802.54 211.00,802.98
             226.66,803.42 232.98,793.59 233.00,779.00
             233.01,772.75 232.32,764.91 234.00,759.00
             234.00,759.00 215.00,758.00 215.00,758.00 Z
           M 322.00,762.00
           C 322.00,762.00 322.00,813.00 322.00,813.00
             322.00,825.98 323.58,829.82 314.00,830.00
             314.00,830.00 299.00,830.00 299.00,830.00
             297.05,829.96 294.37,830.10 293.02,828.40
             291.77,826.81 292.00,822.99 292.00,821.00
             292.00,821.00 292.00,690.00 292.00,690.00
             292.00,690.00 292.00,659.00 292.00,659.00
             292.00,657.01 291.77,653.19 293.02,651.60
             294.59,649.62 298.70,650.00 301.00,650.00
             301.00,650.00 337.00,650.00 337.00,650.00
             352.33,650.02 367.38,654.92 377.54,667.01
             389.27,680.97 390.20,691.78 390.00,709.00
             389.89,718.45 386.90,727.02 381.94,735.00
             378.11,741.15 372.62,747.87 366.00,751.00
             366.00,751.00 388.68,810.00 388.68,810.00
             388.68,810.00 393.89,824.00 393.89,824.00
             394.35,825.65 394.88,827.67 393.36,828.98
             391.90,830.23 387.89,830.00 386.00,830.00
             386.00,830.00 373.00,830.00 373.00,830.00
             370.66,830.00 367.26,830.20 365.22,828.98
             361.64,826.82 357.58,812.47 355.95,808.00
             355.95,808.00 343.81,775.00 343.81,775.00
             342.50,771.55 340.93,764.92 337.78,763.02
             335.18,761.46 325.45,762.00 322.00,762.00 Z
           M 420.69,651.51
           C 422.80,649.38 428.44,650.20 433.94,650.11
             442.98,650.08 446.52,649.89 448.01,651.74
             449.25,653.28 449.00,657.06 449.00,659.00
             449.00,659.00 449.00,790.00 449.00,790.00
             449.00,790.00 449.00,821.00 449.00,821.00
             449.00,822.99 449.23,826.81 447.98,828.40
             446.41,830.38 442.30,830.00 440.00,830.00
             440.00,830.00 428.00,830.00 428.00,830.00
             419.26,829.94 419.02,828.24 419.00,820.00
             419.00,820.00 419.00,695.00 419.00,695.00
             419.00,695.00 419.00,664.00 419.00,664.00
             419.00,659.37 418.47,652.89 420.69,651.51 Z
           M 511.00,801.00
           C 511.00,801.00 550.00,801.00 550.00,801.00
             560.38,801.07 559.03,803.15 559.00,820.00
             558.99,822.54 559.32,826.48 557.40,828.40
             555.48,830.32 551.54,829.99 549.00,830.00
             549.00,830.00 490.00,830.00 490.00,830.00
             481.36,829.98 481.02,829.64 481.00,821.00
             481.00,821.00 481.00,690.00 481.00,690.00
             481.00,690.00 481.00,659.00 481.00,659.00
             481.02,656.65 480.81,653.39 482.60,651.60
             484.52,649.68 488.46,650.01 491.00,650.00
             491.00,650.00 502.00,650.00 502.00,650.00
             504.70,650.04 508.25,649.92 509.98,652.43
             511.13,654.11 510.99,657.03 511.00,659.00
             511.00,659.00 511.00,685.00 511.00,685.00
             511.00,685.00 511.00,801.00 511.00,801.00 Z
           M 612.00,801.00
           C 612.00,801.00 651.00,801.00 651.00,801.00
             661.38,801.07 660.03,803.15 660.00,820.00
             659.99,822.54 660.32,826.48 658.40,828.40
             656.48,830.32 652.54,829.99 650.00,830.00
             650.00,830.00 599.00,830.00 599.00,830.00
             595.47,830.00 584.14,830.91 581.99,828.26
             580.75,826.72 581.00,822.94 581.00,821.00
             581.00,821.00 581.00,690.00 581.00,690.00
             581.00,690.00 581.00,659.00 581.00,659.00
             581.00,657.01 580.77,653.19 582.02,651.60
             583.59,649.62 587.70,650.00 590.00,650.00
             590.00,650.00 604.00,650.00 604.00,650.00
             606.52,650.05 609.40,649.95 610.98,652.31
             612.12,654.02 611.99,657.00 612.00,659.00
             612.00,659.00 612.00,685.00 612.00,685.00
             612.00,685.00 612.00,801.00 612.00,801.00 Z
           M 808.00,678.00
           C 808.00,678.00 782.00,678.00 782.00,678.00
             773.48,677.84 774.97,675.56 775.00,659.00
             775.00,657.01 774.77,653.19 776.02,651.60
             777.59,649.62 781.70,650.00 784.00,650.00
             784.00,650.00 850.00,650.00 850.00,650.00
             853.68,650.00 867.96,649.05 869.98,651.60
             871.23,653.19 871.00,657.01 871.00,659.00
             871.01,662.25 871.65,674.29 869.98,676.40
             868.63,678.10 865.95,677.96 864.00,678.00
             864.00,678.00 838.00,678.00 838.00,678.00
             838.00,678.00 838.00,795.00 838.00,795.00
             838.00,795.00 838.00,821.00 838.00,821.00
             837.98,823.35 838.19,826.61 836.40,828.40
             834.48,830.32 830.54,829.99 828.00,830.00
             828.00,830.00 816.00,830.00 816.00,830.00
             813.48,829.95 810.60,830.05 809.02,827.69
             807.88,825.98 808.01,823.00 808.00,821.00
             808.00,821.00 808.00,795.00 808.00,795.00
             808.00,795.00 808.00,678.00 808.00,678.00 Z
           M 720.00,692.00
           C 716.23,683.94 715.34,676.73 721.10,669.19
             723.82,665.63 726.49,665.22 727.98,662.74
             729.11,660.86 728.78,647.35 735.43,652.19
             738.25,654.25 735.70,659.17 738.60,662.31
             740.66,664.54 744.78,664.53 748.18,671.09
             750.55,675.66 750.98,680.94 751.00,686.00
             751.07,700.79 752.32,717.95 747.35,732.00
             741.76,747.81 737.64,745.73 736.99,746.22
             736.99,746.22 737.00,773.00 737.00,773.00
             743.12,774.19 743.01,774.19 742.96,779.45
             742.96,779.45 743.00,820.00 743.00,820.00
             743.07,825.83 739.81,830.07 732.91,829.90
             726.07,830.01 722.70,825.23 722.81,819.42
             722.81,819.42 722.98,779.67 722.98,779.67
             722.93,774.22 722.98,775.11 729.00,773.00
             729.00,773.00 728.89,748.93 728.89,748.93
             726.79,749.12 725.01,749.07 723.00,748.80
             711.71,746.01 714.00,734.78 714.00,726.00
             721.07,725.34 728.09,720.72 728.00,713.00
             728.00,713.00 725.00,718.00 725.00,718.00
             725.00,718.00 723.04,718.00 723.04,718.00
             721.73,713.51 721.16,702.28 723.04,698.04
             726.07,691.45 729.67,694.46 730.00,685.00
             725.20,686.44 724.49,687.79 722.00,692.00
             722.00,692.00 720.00,692.00 720.00,692.00 Z
           M 322.00,733.00
           C 331.82,730.62 343.48,735.61 352.90,726.79
             363.64,716.72 362.59,689.54 349.96,681.13
             342.40,676.10 330.74,677.00 322.00,677.00
             322.00,677.00 322.00,733.00 322.00,733.00 Z
           M 750.02,777.28M 425.90,646.28M 419.67,647.19" />
</svg>
